# xmcd CD database file
#
# Track frame offsets:
#	150
#	24430
#	36940
#	68891
#	101859
#	126057
#	160870
#	191360
#	194272
#	214786
#	245547
#	277982
#
# Disc length: 3974 seconds
#
# Revision: 0
# Processed by: cddbd v1.5.2PL0 Copyright (c) Steve Scherf et al.
# Submitted via: CDex 1.70beta2
#
DISCID=a70f840c
DTITLE=Tim Kleinert Trio - Free passage to now
DYEAR=2010
DGENRE=Jazz
TTITLE0=Star Frontiers
TTITLE1=Free passage to now - intro
TTITLE2=Free passage to now
TTITLE3=Nowhere like Home
TTITLE4=That's the Ticket
TTITLE5=Wind at my Back
TTITLE6=Steep Desckent
TTITLE7=Lifting off - Intro
TTITLE8=Lifting off
TTITLE9=Transrapid
TTITLE10=The Turning of the Wheel
TTITLE11=Free Passage to Now- Epilogue
EXTD=YEAR: 2010
EXTT0=
EXTT1=
EXTT2=
EXTT3=
EXTT4=
EXTT5=
EXTT6=
EXTT7=
EXTT8=
EXTT9=
EXTT10=
EXTT11=
PLAYORDER=
